<svg id="_0311_customer_service" xmlns="http://www.w3.org/2000/svg" xmlns:xlink="http://www.w3.org/1999/xlink" viewBox="0 0 500 500" data-imageid="customer-service-35" imageName="Customer Service" class="illustrations_image" style="width: 155px;"><defs><style>.cls-1_customer-service-35{fill:url(#linear-gradient);}.cls-1_customer-service-35,.cls-2_customer-service-35,.cls-3_customer-service-35,.cls-4_customer-service-35,.cls-5_customer-service-35,.cls-6_customer-service-35,.cls-7_customer-service-35,.cls-8_customer-service-35,.cls-9_customer-service-35,.cls-10_customer-service-35,.cls-11_customer-service-35,.cls-12_customer-service-35,.cls-13_customer-service-35,.cls-14_customer-service-35,.cls-15_customer-service-35,.cls-16_customer-service-35,.cls-17_customer-service-35,.cls-18_customer-service-35,.cls-19_customer-service-35,.cls-20_customer-service-35,.cls-21_customer-service-35,.cls-22_customer-service-35{stroke-width:0px;}.cls-2_customer-service-35{fill:url(#linear-gradient-11-customer-service-35);}.cls-3_customer-service-35{fill:url(#linear-gradient-12-customer-service-35);}.cls-4_customer-service-35{fill:url(#linear-gradient-13-customer-service-35);}.cls-5_customer-service-35{fill:url(#linear-gradient-10-customer-service-35);}.cls-6_customer-service-35{fill:url(#linear-gradient-15-customer-service-35);}.cls-7_customer-service-35{fill:url(#linear-gradient-14-customer-service-35);}.cls-8_customer-service-35{isolation:isolate;opacity:.4;}.cls-8_customer-service-35,.cls-22_customer-service-35{fill:#68e1fd;}.cls-9_customer-service-35{fill:url(#linear-gradient-4-customer-service-35);}.cls-10_customer-service-35{fill:url(#linear-gradient-2-customer-service-35);}.cls-11_customer-service-35{fill:url(#linear-gradient-3-customer-service-35);}.cls-12_customer-service-35{fill:url(#linear-gradient-8-customer-service-35);}.cls-13_customer-service-35{fill:url(#linear-gradient-9-customer-service-35);}.cls-14_customer-service-35{fill:url(#linear-gradient-7-customer-service-35);}.cls-15_customer-service-35{fill:url(#linear-gradient-5-customer-service-35);}.cls-16_customer-service-35{fill:url(#linear-gradient-6-customer-service-35);}.cls-17_customer-service-35{fill:#606161;}.cls-18_customer-service-35{fill:#2a2d6b;}.cls-19_customer-service-35{fill:#cce8ec;}.cls-20_customer-service-35{fill:#effaff;}.cls-21_customer-service-35{fill:#ffb4a3;}</style><linearGradient id="linear-gradient-customer-service-35" x1="785.69" y1="3755.02" x2="744.61" y2="3698.03" gradientTransform="translate(-500.74 4171.91) scale(1 -1)" gradientUnits="userSpaceOnUse"><stop offset="0" stop-color="#010101" stop-opacity="0"/><stop offset=".95" stop-color="#010101"/></linearGradient><linearGradient id="linear-gradient-2-customer-service-35" x1="780.27" y1="3992.47" x2="773.65" y2="3941.11" xlink:href="#linear-gradient-customer-service-35"/><linearGradient id="linear-gradient-3-customer-service-35" x1="821.98" y1="3745.82" x2="819.33" y2="3812.75" gradientTransform="translate(-500.75 4171.91) scale(1 -1)" xlink:href="#linear-gradient-customer-service-35"/><linearGradient id="linear-gradient-4-customer-service-35" x1="815.37" y1="3744.73" x2="826.3" y2="3744.73" gradientTransform="translate(-500.75 4171.91) scale(1 -1)" gradientUnits="userSpaceOnUse"><stop offset="0" stop-color="#fff" stop-opacity="0"/><stop offset=".95" stop-color="#fff"/></linearGradient><linearGradient id="linear-gradient-5-customer-service-35" x1="902.34" y1="3871.75" x2="728.06" y2="3857.18" xlink:href="#linear-gradient-customer-service-35"/><linearGradient id="linear-gradient-6-customer-service-35" x1="719.35" y1="3906.83" x2="786.61" y2="3944.26" xlink:href="#linear-gradient-customer-service-35"/><linearGradient id="linear-gradient-7-customer-service-35" x1="754.71" y1="3899.63" x2="867.36" y2="3921.49" xlink:href="#linear-gradient-customer-service-35"/><linearGradient id="linear-gradient-8-customer-service-35" x1="630.98" y1="3895.1" x2="631.72" y2="3868.26" gradientTransform="translate(-471 4173.82) scale(1 -1)" xlink:href="#linear-gradient-customer-service-35"/><linearGradient id="linear-gradient-9-customer-service-35" x1="652.33" y1="3749.82" x2="664.93" y2="3979.76" gradientTransform="translate(-471 4173.82) scale(1 -1)" xlink:href="#linear-gradient-customer-service-35"/><linearGradient id="linear-gradient-10-customer-service-35" x1="614.14" y1="3896.89" x2="617.45" y2="4004.23" gradientTransform="translate(-471 4173.82) scale(1 -1)" xlink:href="#linear-gradient-4-customer-service-35"/><linearGradient id="linear-gradient-11-customer-service-35" x1="639.5" y1="3914.71" x2="576.64" y2="3901.79" gradientTransform="translate(-471 4173.82) scale(1 -1)" xlink:href="#linear-gradient-4-customer-service-35"/><linearGradient id="linear-gradient-12-customer-service-35" x1="765.22" y1="3998.25" x2="766.54" y2="3892.89" xlink:href="#linear-gradient-customer-service-35"/><linearGradient id="linear-gradient-13-customer-service-35" x1="761.83" y1="4018.83" x2="758.52" y2="3958.86" xlink:href="#linear-gradient-customer-service-35"/><linearGradient id="linear-gradient-14-customer-service-35" x1="770.48" y1="3991.46" x2="765.02" y2="3963.64" xlink:href="#linear-gradient-customer-service-35"/><linearGradient id="linear-gradient-15-customer-service-35" x1="834.26" y1="3948.85" x2="672.74" y2="3879.27" xlink:href="#linear-gradient-customer-service-35"/></defs><g id="background_customer-service-35"><path class="cls-8_customer-service-35 targetColor" d="M230.2,464.31c50.69-.74,101.53-1.49,151.79-8.16,12.54-1.67,25.51-3.88,35.92-11.08,8.91-6.17,15.17-15.47,20.18-25.08,7.77-14.95,13.18-31.54,12.79-48.41-.45-19.62-8.6-38.68-7.41-58.25,1.3-21.09,13.15-39.81,22.09-58.92,9.33-19.95,15.82-41.99,13.15-63.86-3.8-31.07-26-57.71-52.89-73.79-26.89-16.08-58.16-23.16-89.06-28.36-38.67-6.6-77.75-10.44-116.96-11.49-18.78-.41-38.2,0-55.5,7.24-16.08,6.77-29.18,18.97-41.23,31.59-29.94,31.32-55.74,66.36-76.76,104.25-7.87,14.19-15.22,29.42-15.44,45.63-.37,27.82,19.72,51.1,30.65,76.7,10.37,24.18,11.47,49.68,6.49,75.24-3.41,17.59-8.74,36.33,10.99,45.41,19.29,8.88,48.91,2.85,69.4,2.55l81.82-1.22Z" style="fill: rgb(224, 224, 217);"/></g><g id="character_customer-service-35"><path class="cls-22_customer-service-35 targetColor" d="M274.65,456.89c.25.78-.17,1.62-.95,1.87-.17.06-.36.08-.54.07-11.5,1.94-23.24,1.26-34.87.61-.89-5.05,3.14-9.82,7.77-12,4.63-2.18,9.89-2.57,14.84-3.88,2.05-.69,4.16-1.18,6.3-1.47,9.06-.72,7.17,8.54,7.47,14.8Z" style="fill: rgb(224, 224, 217);"/><path class="cls-1_customer-service-35" d="M274.65,456.89c.25.78-.17,1.62-.95,1.87-.17.06-.36.08-.54.07-11.5,1.94-23.24,1.26-34.87.61-.89-5.05,3.14-9.82,7.77-12,4.63-2.18,9.89-2.57,14.84-3.88,2.05-.69,4.16-1.18,6.3-1.47,9.06-.72,7.17,8.54,7.47,14.8Z"/><path class="cls-17_customer-service-35" d="M239.85,184.04c-1.2-8.34-1.68-17.64,3.38-24.38,4.1-5.46,11.27-8.08,18.08-7.69,6.81.39,13.25,3.46,18.67,7.59,3.07,2.22,5.69,4.99,7.72,8.18,7.21,12.05,1.7,29.66,11.31,39.9,3.39,3.61,8.2,5.64,11.65,9.2,6.92,7.14,6.75,18.53-.39,25.45-2.98,2.89-6.87,4.66-11.01,5.01-5.25.45-10.41-1.42-15.63-2.12-8.36-1.13-16.88.71-25.24-.23-8.36-.94-17.48-6.08-18.45-14.45-.97-8.37,6.22-15.72,5.59-23.99-.45-5.74-4.53-10.44-7.15-15.53-2.61-5.1-3.2-12.54,1.67-15.63"/><path class="cls-10_customer-service-35" d="M239.85,184.04c-1.2-8.34-1.68-17.64,3.38-24.38,4.1-5.46,11.27-8.08,18.08-7.69,6.81.39,13.25,3.46,18.67,7.59,3.07,2.22,5.69,4.99,7.72,8.18,7.21,12.05,1.7,29.66,11.31,39.9,3.39,3.61,8.2,5.64,11.65,9.2,6.92,7.14,6.75,18.53-.39,25.45-2.98,2.89-6.87,4.66-11.01,5.01-5.25.45-10.41-1.42-15.63-2.12-8.36-1.13-16.88.71-25.24-.23-8.36-.94-17.48-6.08-18.45-14.45-.97-8.37,6.22-15.72,5.59-23.99-.45-5.74-4.53-10.44-7.15-15.53-2.61-5.1-3.2-12.54,1.67-15.63"/><rect class="cls-19_customer-service-35" x="318.92" y="445.01" width="2.34" height="3.76"/><rect class="cls-22_customer-service-35 targetColor" x="312.28" y="376.69" width="15.6" height="40.79" style="fill: rgb(224, 224, 217);"/><rect class="cls-11_customer-service-35" x="312.28" y="376.69" width="15.6" height="40.79"/><rect class="cls-22_customer-service-35 targetColor" x="312.28" y="436.87" width="15.6" height="7.62" style="fill: rgb(224, 224, 217);"/><rect class="cls-22_customer-service-35 targetColor" x="314.62" y="417.26" width="10.92" height="19.84" style="fill: rgb(224, 224, 217);"/><rect class="cls-9_customer-service-35" x="314.62" y="417.26" width="10.92" height="19.84"/><rect class="cls-22_customer-service-35 targetColor" x="284.54" y="441.34" width="71.11" height="3.79" style="fill: rgb(224, 224, 217);"/><rect class="cls-18_customer-service-35" x="316.68" y="447.02" width="6.82" height="10.15" rx="1.37" ry="1.37"/><rect class="cls-19_customer-service-35" x="351.31" y="444.9" width="2.34" height="5.13"/><rect class="cls-19_customer-service-35" x="286.64" y="444.9" width="2.34" height="5.13"/><circle class="cls-18_customer-service-35" cx="354.31" cy="452.65" r="5.06"/><circle class="cls-18_customer-service-35" cx="285.88" cy="452.32" r="5.06"/><path class="cls-22_customer-service-35 targetColor" d="M382.32,243.81h-54.66c-5.89,0-10.94,4.19-12.03,9.98l-22.12,117.96,63.63-5.3,25.18-122.64Z" style="fill: rgb(224, 224, 217);"/><path class="cls-15_customer-service-35" d="M382.32,243.81h-54.66c-5.89,0-10.94,4.19-12.03,9.98l-22.12,117.96,63.63-5.3,25.18-122.64Z"/><path class="cls-22_customer-service-35 targetColor" d="M304.97,369.76c0-4.88,3.96-8.84,8.84-8.84h42.54c7.02-44.01,16.58-104.31,17.14-108.94.4-4.87,4.66-8.5,9.53-8.1,4.57.37,8.11,4.18,8.13,8.77,0,.89,0,2.54-18.52,118.51-.69,4.29-4.39,7.45-8.74,7.45h-50.07c-4.88,0-8.84-3.95-8.84-8.84ZM373.48,252.65v-.59c-.01.2-.01.4,0,.59Z" style="fill: rgb(224, 224, 217);"/><path class="cls-22_customer-service-35 targetColor" d="M260.42,378.6h59.29c4.88-.16,8.71-4.25,8.55-9.13-.15-4.65-3.89-8.39-8.55-8.55h-59.29c-4.88-.16-8.97,3.66-9.13,8.55-.16,4.88,3.66,8.97,8.55,9.13.2,0,.39,0,.59,0Z" style="fill: rgb(224, 224, 217);"/><path class="cls-17_customer-service-35" d="M316.95,323.47s-80.75,30.25-81.13,31.63c-2.6,9.71,22.33,89.32,22.33,89.32,0,0,8.3,5.31,18.07-1.06l-7.72-71.53,39.55-11.52s18.19-7.82,8.89-36.85Z"/><path class="cls-17_customer-service-35" d="M263.74,321.98s-56.31,26.56-55.82,27.91,10.91,86.91,10.91,86.91c0,0,7.48,5.04,17.99,0l1.65-71.91,68.05-9.78s6.7-10.05,10.43-31.63c-7.33-5.84-51.23-2.19-53.22-1.5Z"/><path class="cls-21_customer-service-35" d="M200.68,279.84s-11.42-3.33-15.9-2.91c-4.49.42-14.35,5.31-15.28,5.71s-2.18,2.62,6.8,1.82,12.47,5.98,19.11,4.58c6.64-1.4,8.22-5.41,8.22-5.41"/><path class="cls-22_customer-service-35 targetColor" d="M252.36,212.43l-18.79,54.37-34.66,11.45s-3.43,2.46.97,11.09c0,0,34.8-.31,42.87-3.83,8.07-3.51,21.71-54.77,21.71-54.77" style="fill: rgb(224, 224, 217);"/><path class="cls-16_customer-service-35" d="M252.36,212.43l-18.79,54.37-34.66,11.45s-3.43,2.46.97,11.09c0,0,34.8-.31,42.87-3.83,8.07-3.51,21.71-54.77,21.71-54.77"/><path class="cls-22_customer-service-35 targetColor" d="M287.67,216.02c4.79,6.02,8.29,13.54,11.4,20.02,6.56,13.6,10.83,28.19,12.62,43.18,1.03,8.91.97,18.03,2,27.11.17,1.41,2.91,17.31,1.74,17.82,0,0-18.51,6.63-46.54,7.01-3,0-13.05,1.57-14.85-1.69-1.14-2.06.97-8.62,1.12-10.89,1.14-13.21.89-19.99,1.29-33.24.15-4.85-7.84-24.87-10.08-27.41-2.96-3.34-4.03-8.07-3.61-12.51.37-4.02,2.5-7.26,3.28-11.08.73-3.47.38-6.85,1.52-10.37,3.8-11.52,14.18-21.16,27-18.93,6.86,1.19,8.85,5.67,13.1,11Z" style="fill: rgb(224, 224, 217);"/><path class="cls-14_customer-service-35" d="M287.67,216.02c4.79,6.02,8.29,13.54,11.4,20.02,6.56,13.6,10.83,28.19,12.62,43.18,1.03,8.91.97,18.03,2,27.11.17,1.41,2.91,17.31,1.74,17.82,0,0-18.51,6.63-46.54,7.01-3,0-13.05,1.57-14.85-1.69-1.14-2.06.97-8.62,1.12-10.89,1.14-13.21.89-19.99,1.29-33.24.15-4.85-7.84-24.87-10.08-27.41-2.96-3.34-4.03-8.07-3.61-12.51.37-4.02,2.5-7.26,3.28-11.08.73-3.47.38-6.85,1.52-10.37,3.8-11.52,14.18-21.16,27-18.93,6.86,1.19,8.85,5.67,13.1,11Z"/><path class="cls-20_customer-service-35" d="M255.13,318.57s-13.14,9.34-9.34,11.6c3.48,2.08,28,2.42,31.29,4.6s8.84,9.91,22.05,13.34c13.2,3.43,17.84-5.67,18.8-13.34.62-4.42-.27-8.93-2.53-12.78,0,0-48.36,5.42-60.26-3.43Z"/><rect class="cls-22_customer-service-35 targetColor" x="120.49" y="284.06" width="79.41" height="5.22" style="fill: rgb(224, 224, 217);"/><rect class="cls-12_customer-service-35" x="120.49" y="284.06" width="79.41" height="5.22"/><rect class="cls-22_customer-service-35 targetColor" x="112.21" y="288.96" width="177.59" height="5.3" style="fill: rgb(224, 224, 217);"/><rect class="cls-22_customer-service-35 targetColor" x="113.2" y="293.92" width="141.26" height="169" style="fill: rgb(224, 224, 217);"/><rect class="cls-13_customer-service-35" x="113.2" y="293.92" width="141.26" height="169"/><rect class="cls-22_customer-service-35 targetColor" x="92.16" y="193.87" width="104.7" height="76.87" rx="10.01" ry="10.01" style="fill: rgb(224, 224, 217);"/><rect class="cls-5_customer-service-35" x="92.16" y="193.87" width="104.7" height="76.87" rx="10.01" ry="10.01"/><path class="cls-22_customer-service-35 targetColor" d="M132.15,239.6h12.95c4.79,0,8.68,3.89,8.68,8.68h0v41.01h-30.31v-41.01c0-4.79,3.89-8.68,8.68-8.68Z" style="fill: rgb(224, 224, 217);"/><path class="cls-2_customer-service-35" d="M132.15,239.6h12.95c4.79,0,8.68,3.89,8.68,8.68h0v41.01h-30.31v-41.01c0-4.79,3.89-8.68,8.68-8.68Z"/><path class="cls-21_customer-service-35" d="M257.64,215.23c-.02.66.09,1.32.31,1.94.55,1.1,1.61,1.85,2.84,1.99,1.2.13,2.42-.01,3.55-.42,5.19-1.58,10-5.76,10.58-11.16.12-1.63,0-3.26-.37-4.85-.49-2.49-1.25-4.92-2.26-7.24-.97-2.18-2.41-4.5-4.75-4.9s-4.74,1.53-6.16,3.62c-4.07,5.9-3.91,14.13-3.75,21.02Z"/><path class="cls-3_customer-service-35" d="M271.59,203.33c-1.02,3.11-3.1,5.77-5.87,7.51-1.07.67-2.32.99-3.58.92-2.14-.21-3.82-2.01-4.66-3.98-.7-1.77-1.07-3.65-1.09-5.55-.28-3.41.43-6.82,2.04-9.84,1.72-2.91,4.85-5.15,8.28-5.07,8.7.2,6.85,10.63,4.88,16.01Z"/><path class="cls-21_customer-service-35" d="M242.76,171.85l2.03,12.84c.53,4.37,1.48,8.68,2.83,12.87,1.2,3.33,3.06,6.63,6.14,8.38,3.13,1.63,6.83,1.74,10.05.3,3.18-1.46,5.88-3.77,7.82-6.68,4.92-7,6.28-15.99,5.56-24.52-.42-5.02-1.6-10.17-4.71-14.13-3.74-4.64-9.62-7.01-15.53-6.25-8.26,1.17-15.45,8.84-14.18,17.18Z"/><path class="cls-22_customer-service-35 targetColor" d="M284.64,176.7c-.3-.93-.69-1.82-1.17-2.67.2-1.28.3-2.58.3-3.88,0-13.36-10.82-24.2-24.19-24.2-13.36,0-24.2,10.82-24.2,24.19v.02c0,1.32.11,2.64.32,3.94-.47.84-.85,1.72-1.15,2.63-.56,1.53-.2,8.95.5,9.96,1.28,1.85,4.76,3.3,6.97,3.58.29.31.7.48,1.13.44.72-.05,1.26-.67,1.21-1.39,0,0,0-.01,0-.02l-1.21-13.34c-.08-.72-.73-1.24-1.45-1.17-.32.03-.61.18-.83.41h-.36c-.96-.22-1.78-.84-2.24-1.72-.17-1.09-.26-2.19-.26-3.29,0-12.1,9.66-20.39,21.58-20.39s21.58,8.31,21.58,20.39c0,1.11-.09,2.22-.26,3.32-.47.83-1.27,1.42-2.19,1.62h-.36c-.51-.53-1.35-.55-1.88-.04-.22.21-.36.49-.4.8l-1.21,13.34c-.06.72.48,1.35,1.2,1.41.42.04.84-.12,1.13-.44,2.21-.28,5.69-1.73,6.97-3.58.7-.95,1.07-8.38.5-9.91Z" style="fill: rgb(224, 224, 217);"/><path class="cls-4_customer-service-35" d="M284.64,176.7c-.3-.93-.69-1.82-1.17-2.67.2-1.28.3-2.58.3-3.88,0-13.36-10.82-24.2-24.19-24.2-13.36,0-24.2,10.82-24.2,24.19v.02c0,1.32.11,2.64.32,3.94-.47.84-.85,1.72-1.15,2.63-.56,1.53-.2,8.95.5,9.96,1.28,1.85,4.76,3.3,6.97,3.58.29.31.7.48,1.13.44.72-.05,1.26-.67,1.21-1.39,0,0,0-.01,0-.02l-1.21-13.34c-.08-.72-.73-1.24-1.45-1.17-.32.03-.61.18-.83.41h-.36c-.96-.22-1.78-.84-2.24-1.72-.17-1.09-.26-2.19-.26-3.29,0-12.1,9.66-20.39,21.58-20.39s21.58,8.31,21.58,20.39c0,1.11-.09,2.22-.26,3.32-.47.83-1.27,1.42-2.19,1.62h-.36c-.51-.53-1.35-.55-1.88-.04-.22.21-.36.49-.4.8l-1.21,13.34c-.06.72.48,1.35,1.2,1.41.42.04.84-.12,1.13-.44,2.21-.28,5.69-1.73,6.97-3.58.7-.95,1.07-8.38.5-9.91Z"/><path class="cls-22_customer-service-35 targetColor" d="M278.97,189.54c-1.45-1.13-1.94,0-1.94,0-.78,1.39-5.24,7.62-14.92,10.4-.94-.86-2.19-1.31-3.47-1.24-2.17,0-3.93,1.04-3.93,2.32s1.76,2.33,3.93,2.33,3.88-1.03,3.93-2.31c3.39-1.04,11.84-4.18,16.4-11.5Z" style="fill: rgb(224, 224, 217);"/><path class="cls-7_customer-service-35" d="M278.97,189.54c-1.45-1.13-1.94,0-1.94,0-.78,1.39-5.24,7.62-14.92,10.4-.94-.86-2.19-1.31-3.47-1.24-2.17,0-3.93,1.04-3.93,2.32s1.76,2.33,3.93,2.33,3.88-1.03,3.93-2.31c3.39-1.04,11.84-4.18,16.4-11.5Z"/><path class="cls-17_customer-service-35" d="M246.43,166c.89.87,1.71,1.81,2.43,2.83,4.2,4.84,11.01,6.48,16.95,4.09,1.94-.83,3.98-2.13,6.01-1.54,1.06.44,2.06,1,2.98,1.67.97.57,2.34.86,3.22.14.57-.57.88-1.35.83-2.16.1-3.01-1.75-5.69-3.5-8.13-1.37-2.12-3.08-4-5.05-5.57-1.66-1.11-3.51-1.9-5.47-2.31-5.08-1.19-10.41-.69-15.18,1.43-1.76.72-3.34,1.82-4.62,3.21-.78.91-2.2,3.09-1.78,4.39s2.11,1.06,3.17,1.96Z"/><path class="cls-21_customer-service-35" d="M285.48,173.76c-.5-.37-1.09-.58-1.71-.6-.83.13-1.52.73-1.76,1.53-.22.79-.28,1.62-.18,2.44l.61,11.15c.02,1.23.18,2.45.47,3.64.87,3.15,3.42,5.5,5.83,7.66.98,1.05,2.23,1.81,3.61,2.21,2,.23,3.96-.65,5.11-2.3,6.56-8.44-4.98-21.45-11.97-25.73Z"/><path class="cls-22_customer-service-35 targetColor" d="M297.26,259.01c6.18,6.87,14.22,12.37,23.3,14.14,1.12.5,2.43,0,2.92-1.13.08-.19.14-.38.17-.58,2.74-7.27,2.18-15.42.3-22.96-1.88-7.54-5.01-14.71-7.43-22.1-2.91-9.02-16.27-33.33-17.28-33.33-3.61,0-7.13,3.97-9.27,6.46.35,8.27,6.87,14.34,8.12,22.53-.97-4.54-7.62-9.71-11.77-11.78-1.73-.87-9.18-5.57-10.77-4.46-1.23.86,3.55,6.66,3.27,8.15-2.98,15.67,8.35,33.85,18.44,45.06Z" style="fill: rgb(224, 224, 217);"/><path class="cls-6_customer-service-35" d="M297.26,259.01c6.18,6.87,14.22,12.37,23.3,14.14,1.12.5,2.43,0,2.92-1.13.08-.19.14-.38.17-.58,2.74-7.27,2.18-15.42.3-22.96-1.88-7.54-5.01-14.71-7.43-22.1-2.91-9.02-16.27-33.33-17.28-33.33-3.61,0-7.13,3.97-9.27,6.46.35,8.27,6.87,14.34,8.12,22.53-.97-4.54-7.62-9.71-11.77-11.78-1.73-.87-9.18-5.57-10.77-4.46-1.23.86,3.55,6.66,3.27,8.15-2.98,15.67,8.35,33.85,18.44,45.06Z"/></g></svg>